HIERARCHY
ROOT Hips
{
	OFFSET -6.501393 103.544830 -3.308209
	CHANNELS 6 Xposition Yposition Zposition Zrotation Yrotation Xrotation 
	JOINT Chest
	{
		OFFSET 3.490766 13.188873 -0.149589
		CHANNELS 6 Xposition Yposition Zposition Zrotation Yrotation Xrotation 
		JOINT Chest2
		{
			OFFSET 2.498665 20.695694 4.950911
			CHANNELS 6 Xposition Yposition Zposition Zrotation Yrotation Xrotation 
			JOINT Chest3
			{
				OFFSET 2.586676 14.483231 2.522879
				CHANNELS 6 Xposition Yposition Zposition Zrotation Yrotation Xrotation 
				JOINT Neck
				{
					OFFSET 3.658716 16.642105 2.875753
					CHANNELS 6 Xposition Yposition Zposition Zrotation Yrotation Xrotation 
					JOINT Head
					{
						OFFSET 0.562498 9.917938 3.338517
						CHANNELS 6 Xposition Yposition Zposition Zrotation Yrotation Xrotation 
						End Site #name: Head_end_site
						{
							OFFSET 0.623727 9.927261 3.299727
						}
					}
				}
				JOINT LeftCollar
				{
					OFFSET 3.158933 11.826752 7.207877
					CHANNELS 6 Xposition Yposition Zposition Zrotation Yrotation Xrotation 
					JOINT LeftUpArm
					{
						OFFSET 9.662516 -4.699112 13.894368
						CHANNELS 6 Xposition Yposition Zposition Zrotation Yrotation Xrotation 
						JOINT LeftLowArm
						{
							OFFSET -26.061760 -12.379883 17.528591
							CHANNELS 6 Xposition Yposition Zposition Zrotation Yrotation Xrotation 
							JOINT LeftHand
							{
								OFFSET -23.105013 -13.493835 13.602276
								CHANNELS 6 Xposition Yposition Zposition Zrotation Yrotation Xrotation 
								End Site #name: LeftHand_end_site
								{
									OFFSET -5.049747 -2.949127 2.972858
								}
							}
						}
					}
				}
				JOINT RightCollar
				{
					OFFSET -1.958067 14.041336 0.903037
					CHANNELS 6 Xposition Yposition Zposition Zrotation Yrotation Xrotation 
					JOINT RightUpArm
					{
						OFFSET -7.902977 5.073425 -14.842493
						CHANNELS 6 Xposition Yposition Zposition Zrotation Yrotation Xrotation 
						JOINT RightLowArm
						{
							OFFSET -31.237156 3.028915 12.441875
							CHANNELS 6 Xposition Yposition Zposition Zrotation Yrotation Xrotation 
							JOINT RightHand
							{
								OFFSET 1.770481 -9.929611 28.270538
								CHANNELS 6 Xposition Yposition Zposition Zrotation Yrotation Xrotation 
								End Site #name: RightHand_end_site
								{
									OFFSET 0.386944 -2.170212 6.178812
								}
							}
						}
					}
				}
			}
		}
	}
	JOINT LeftUpLeg
	{
		OFFSET 6.008414 -1.501137 7.878114
		CHANNELS 6 Xposition Yposition Zposition Zrotation Yrotation Xrotation 
		JOINT LeftLowLeg
		{
			OFFSET -32.490929 -13.194344 31.847103
			CHANNELS 6 Xposition Yposition Zposition Zrotation Yrotation Xrotation 
			JOINT LeftFoot
			{
				OFFSET -27.394722 -30.609779 17.695694
				CHANNELS 6 Xposition Yposition Zposition Zrotation Yrotation Xrotation 
				JOINT LeftToe
				{
					OFFSET -14.301807 2.204399 18.712517
					CHANNELS 6 Xposition Yposition Zposition Zrotation Yrotation Xrotation 
					End Site #name: LeftToe_end_site
					{
						OFFSET -6.634720 15.950195 16.159538
					}
				}
			}
		}
	}
	JOINT RightUpLeg
	{
		OFFSET -6.008467 1.500946 -7.878115
		CHANNELS 6 Xposition Yposition Zposition Zrotation Yrotation Xrotation 
		JOINT RightLowLeg
		{
			OFFSET -7.669543 -46.691193 2.263450
			CHANNELS 6 Xposition Yposition Zposition Zrotation Yrotation Xrotation 
			JOINT RightFoot
			{
				OFFSET 16.419405 -39.122486 -14.156796
				CHANNELS 6 Xposition Yposition Zposition Zrotation Yrotation Xrotation 
				JOINT RightToe
				{
					OFFSET -13.268997 -16.468420 10.596312
					CHANNELS 6 Xposition Yposition Zposition Zrotation Yrotation Xrotation 
					End Site #name: RightToe_end_site
					{
						OFFSET -19.207935 -1.991539 13.661808
					}
				}
			}
		}
	}
}
MOTION
Frames: 7
Frame Time: 0.033333
-40.426956 106.483803 3.713367 18.398016 44.439653 16.119289 3.588396 13.000398 -0.239956 -10.463427 3.333560 -19.209231 2.465216 20.522306 4.979498 -7.128600 9.731673 0.199983 2.652563 14.354843 2.568427 -0.716101 -0.108830 8.998977 3.623293 16.476601 2.768642 -2.831098 2.670577 -7.399937 0.575194 9.821791 3.243023 -2.290242 2.744625 6.623079 3.195635 11.704725 7.128197 -0.807902 17.042510 5.677320 9.571501 -4.515131 13.829647 3.173725 23.814226 -12.757415 -25.860439 -12.433265 17.333717 -35.541200 -12.195674 -25.253035 -22.993954 -13.487041 13.398457 1.322231 3.082036 3.165942 -1.892327 13.945528 0.964049 3.611782 -0.404419 -8.176898 -7.778509 5.029113 -14.618932 12.530276 -10.137086 0.683619 -30.843328 3.007188 12.406479 -21.235482 10.545120 -31.215850 1.725865 -9.927489 28.029778 -8.886401 -0.308880 -0.063001 5.940459 -1.515970 7.815791 31.875864 -4.832338 35.014593 -32.155132 -12.989109 31.625568 -0.714875 4.551033 0.088377 -27.181442 -30.427763 17.464987 3.741794 2.897214 -3.969097 -14.166833 2.139326 18.511200 4.035015 6.056497 -0.375941 -5.841534 1.514955 -7.996355 -20.159935 -7.358544 -0.938253 -7.586179 -46.278122 2.257032 -9.251191 5.991975 -11.172133 16.264517 -38.655251 -13.994741 17.491042 -13.325450 10.977034 -13.032935 -16.372894 10.509430 -3.269733 1.505101 -3.145403 
-38.948982 106.729164 3.591080 17.707235 41.744883 15.574938 3.591964 13.000561 -0.235570 -10.553214 3.197636 -19.057271 2.467682 20.521589 4.977870 -7.177710 9.224746 0.239039 2.659000 14.358817 2.575388 -0.460960 -0.065169 8.536214 3.622356 16.480654 2.771683 -2.584354 2.511603 -6.853720 0.577706 9.816651 3.242760 -2.100193 2.842294 6.158273 3.188954 11.698488 7.133530 -0.598262 17.331815 5.871772 9.572279 -4.525691 13.830750 3.906173 23.695285 -11.581959 -25.860924 -12.427944 17.336758 -35.721029 -12.719441 -25.707370 -22.995779 -13.491068 13.398567 1.048469 2.947907 2.985449 -1.895594 13.944571 0.957353 3.600180 -0.481248 -8.113718 -7.783805 5.032222 -14.620837 12.835847 -10.005307 0.720242 -30.852470 3.007316 12.408131 -20.576823 11.331701 -29.912639 1.725635 -9.925859 28.029015 -8.880328 -0.022614 0.363409 5.939270 -1.519977 7.817728 31.875458 -5.523886 35.090466 -32.154793 -12.995405 31.628685 -0.866752 4.006171 -0.438295 -27.178686 -30.428486 17.466990 4.026438 2.226446 -3.646526 -14.166036 2.142650 18.510340 4.036266 6.323583 -0.639329 -5.843598 1.513022 -8.000256 -19.380616 -7.050508 -1.364868 -7.582422 -46.279003 2.255928 -9.468756 5.628722 -11.441681 16.262281 -38.660141 -13.989966 17.539974 -13.435322 10.701636 -13.039659 -16.378279 10.500854 -3.058667 1.540487 -2.588054 
-37.535549 106.895554 3.413771 17.247129 39.311458 14.848811 3.588331 13.004495 -0.229918 -10.568043 2.959896 -18.837728 2.468507 20.521311 4.974989 -6.730126 8.698982 0.119906 2.661178 14.365599 2.574278 -0.288025 -0.170880 8.262639 3.622100 16.477484 2.776950 -1.999679 2.622164 -6.172819 0.573688 9.815716 3.242077 -1.787253 2.861153 6.093410 3.187064 11.694978 7.136099 -0.687610 17.501610 5.629177 9.576698 -4.527817 13.830490 4.870511 23.519251 -10.802455 -25.862076 -12.416759 17.340464 -35.483628 -13.398406 -25.646780 -22.992601 -13.494293 13.402261 0.681833 2.752696 2.993783 -1.895096 13.941650 0.954259 4.210022 -0.578964 -8.408782 -7.786554 5.026961 -14.624559 12.539233 -10.352792 0.742959 -30.855013 3.009292 12.407507 -19.616568 11.940489 -28.463734 1.725435 -9.918647 28.030247 -8.766243 0.023189 0.475819 5.946276 -1.518225 7.821678 31.733769 -6.068296 35.263351 -32.157074 -12.997792 31.627689 -1.342854 3.745815 -1.040818 -27.179512 -30.429594 17.473576 3.484084 2.118243 -3.728460 -14.165525 2.138970 18.506762 3.908854 6.275152 -0.658364 -5.838450 1.507986 -8.001854 -18.923968 -6.823821 -1.512239 -7.589202 -46.277206 2.255582 -9.601138 5.178590 -11.762825 16.268095 -38.663128 -13.993047 17.283174 -13.757847 10.766752 -13.039609 -16.380768 10.502131 -2.686529 1.852202 -2.653176 
-36.183510 106.997284 3.201058 16.666189 36.817090 14.261690 3.585497 13.013310 -0.227827 -10.653458 2.618061 -18.539910 2.474990 20.519325 4.968276 -6.326691 8.088302 0.114416 2.669068 14.371639 2.575535 0.053252 0.085048 8.064688 3.619109 16.475515 2.778120 -1.701499 2.718371 -5.569712 0.570447 9.812160 3.243735 -1.738759 2.655830 5.851299 3.180985 11.695962 7.139831 -0.987345 17.819752 5.682114 9.580124 -4.537202 13.831292 5.756454 23.197404 -9.827332 -25.865063 -12.405947 17.353001 -35.342561 -13.588719 -26.036804 -22.992838 -13.497326 13.405560 0.312257 2.773590 2.821023 -1.894553 13.943201 0.951119 4.453988 -0.335823 -8.412865 -7.793075 5.027344 -14.634795 13.009678 -10.589609 0.654831 -30.858171 3.010735 12.401081 -18.355674 12.185246 -26.979855 1.723239 -9.916529 28.031015 -8.867508 0.430300 0.490191 5.946859 -1.519327 7.826364 31.728927 -6.105403 35.007977 -32.153606 -13.002593 31.627085 -1.619170 3.599417 -1.730378 -27.185814 -30.427776 17.468195 3.505449 1.783237 -3.452650 -14.162695 2.142033 18.509392 4.089624 6.566237 -0.303603 -5.836010 1.506520 -8.001752 -18.445332 -6.587221 -1.946412 -7.587908 -46.272316 2.257568 -9.393648 5.033549 -12.001556 16.266846 -38.676083 -13.992132 16.727214 -14.044385 11.014492 -13.051431 -16.385862 10.499831 -2.434970 1.850810 -2.551218 
-34.927563 107.048264 2.977650 16.359017 35.542331 14.526252 3.588685 13.022012 -0.220898 -10.434362 2.476723 -18.277917 2.476223 20.519487 4.966280 -5.998789 7.648632 0.131171 2.668891 14.375324 2.572885 0.339841 0.249088 8.099554 3.612946 16.482510 2.782965 -1.719065 2.672207 -5.349499 0.571134 9.816969 3.243371 -1.164141 2.525418 5.712165 3.179107 11.693646 7.142520 -1.277411 17.945019 5.754591 9.585074 -4.545708 13.831653 6.620787 22.869353 -8.901262 -25.871235 -12.394847 17.357569 -35.323775 -13.774337 -26.117136 -22.991705 -13.497622 13.405060 0.015588 2.462960 2.879835 -1.895573 13.942430 0.949196 4.889241 -0.392200 -8.462106 -7.794649 5.034115 -14.633248 13.467107 -10.814205 0.664247 -30.867016 3.009300 12.400445 -17.600974 12.663067 -25.610522 1.723190 -9.910709 28.027971 -8.432423 0.355400 0.401380 5.950686 -1.518592 7.824816 31.469338 -6.550948 35.176683 -32.155197 -13.005837 31.627346 -1.817437 3.383850 -2.078419 -27.184711 -30.426125 17.472010 3.203775 1.385416 -3.686002 -14.163395 2.140112 18.514736 3.928077 6.681849 -0.611975 -5.835317 1.503587 -7.997486 -18.051758 -6.484906 -2.386845 -7.593039 -46.273853 2.258077 -9.189745 4.884110 -11.976943 16.270643 -38.684635 -13.991076 16.131633 -14.181983 10.822851 -13.053958 -16.386051 10.498945 -2.371412 1.972807 -2.398713 
-33.783997 107.063080 2.758374 16.410284 34.320676 14.812875 3.582705 13.022708 -0.216270 -10.422379 2.187157 -18.023662 2.479277 20.516840 4.964033 -5.827161 7.005794 0.037327 2.667388 14.377812 2.573163 0.778322 0.203445 7.540071 3.606847 16.481600 2.784735 -1.290477 2.519348 -4.889810 0.569779 9.818429 3.245936 -1.024143 2.270175 5.099845 3.173444 11.693205 7.146645 -1.353128 17.869409 5.847043 9.587165 -4.553850 13.830466 7.718185 22.657080 -8.060749 -25.874674 -12.385368 17.364086 -35.539271 -13.934225 -25.968427 -22.986706 -13.499219 13.405834 0.003588 2.442431 2.861123 -1.901029 13.941376 0.950893 5.071368 -0.277666 -8.740089 -7.804521 5.034193 -14.636012 13.458539 -10.991038 0.646342 -30.866446 3.005917 12.395623 -16.700005 13.076409 -24.499738 1.719618 -9.910307 28.020298 -8.598579 0.176003 0.375132 5.954313 -1.518974 7.825275 31.416801 -6.729749 34.727134 -32.152809 -13.006557 31.629976 -1.810130 3.115212 -2.231270 -27.183462 -30.425005 17.475689 3.227264 0.901089 -3.588995 -14.164752 2.144459 18.517076 4.220426 6.885543 -0.531525 -5.838757 1.507205 -7.995943 -17.672974 -5.954451 -2.805975 -7.592574 -46.266495 2.255285 -8.367278 4.271024 -11.811978 16.275436 -38.692249 -13.987755 15.974310 -14.334021 10.731750 -13.059990 -16.390232 10.494417 -1.857227 2.157347 -1.975186 
-32.746742 107.072495 2.572710 16.746569 33.537253 14.672162 3.577716 13.027361 -0.213504 -10.138571 2.167810 -17.857398 2.480120 20.518621 4.958663 -5.023031 7.122722 0.152415 2.669901 14.388186 2.571879 0.814360 0.181429 7.473297 3.600886 16.475790 2.794198 -1.233982 2.431196 -4.808558 0.571296 9.821427 3.243231 -0.696095 2.388537 5.042989 3.174110 11.697128 7.146624 -1.344428 17.725126 5.734928 9.591233 -4.557395 13.828642 8.285534 22.676266 -7.868617 -25.877878 -12.377237 17.369654 -34.974120 -14.217184 -26.462178 -22.986795 -13.503823 13.410685 -0.391163 2.321735 2.769163 -1.903172 13.941970 0.953157 5.437879 -0.284135 -8.196700 -7.806634 5.031359 -14.642278 13.593395 -11.150224 0.783028 -30.870165 3.007279 12.400440 -15.940565 13.304178 -23.088708 1.720485 -9.903231 28.026556 -8.148447 0.199237 0.450839 5.955999 -1.520036 7.821340 31.257644 -6.848081 34.379720 -32.155842 -13.009104 31.634380 -1.867220 2.814377 -2.654010 -27.185112 -30.426609 17.482676 3.323502 0.494200 -3.475951 -14.166171 2.143404 18.520615 3.849900 6.577749 -0.772748 -5.832837 1.509236 -8.000519 -17.391752 -5.784909 -2.897904 -7.596710 -46.268986 2.252054 -8.491535 4.185624 -11.897161 16.276358 -38.700554 -13.990256 15.782445 -14.785674 10.633058 -13.064194 -16.390041 10.493085 -1.973186 2.240160 -2.140318 
